<svg viewBox="0 0 612 792" xmlns="http://www.w3.org/2000/svg" fill="white">
<path d="M306 153.3c-17.2 0-31.2 14-31.2 31.2s14 31.2 31.2 31.2 31.2-14 31.2-31.2-14-31.2-31.2-31.2zm0 46.8c-8.6 0-15.6-7-15.6-15.6s7-15.6 15.6-15.6 15.6 7 15.6 15.6-7 15.6-15.6 15.6z"/>
<path d="M393.9 201.5c-2.4-4.1-7.4-5.9-11.5-3.5l-70.7 40.8V198c0-6.2-5-11.2-11.2-11.2h-48.8c-6.2 0-11.2 5-11.2 11.2v40.8l-70.7-40.8c-4.1-2.4-9.1-.6-11.5 3.5s-.6 9.1 3.5 11.5l70.7 40.8-40.8 70.7c-2.4 4.1-.6 9.1 3.5 11.5 1.8 1.1 3.8 1.6 5.8 1.6 2.5 0 5-1 6.7-2.8l40.8-70.7 40.8 70.7c1.8 1.8 4.2 2.8 6.7 2.8 2 0 4-.5 5.8-1.6 4.1-2.4 5.9-7.4 3.5-11.5l-40.8-70.7 70.7-40.8c4.1-2.3 5.9-7.3 3.5-11.5zM306 310.4c-4.1 0-7.8-2.5-9.4-6.4l-34.5-80.6 69-39.8 34.5 80.6-69 39.8c-2.9.1-3.1 0-3.1 0z"/>
<path d="M462.5 232.3l-45.8 26.4 26.4 45.8c2.4 4.1.6 9.1-3.5 11.5s-9.1.6-11.5-3.5l-26.4-45.8-45.8 26.4c-4.1 2.4-9.1.6-11.5-3.5s-.6-9.1 3.5-11.5l45.8-26.4-26.4-45.8c-2.4-4.1-.6-9.1 3.5-11.5s9.1-.6 11.5 3.5l26.4 45.8 45.8-26.4c4.1-2.4 9.1-.6 11.5 3.5s.6 9.1-3.5 11.5z"/>
<path d="M149.5 232.3l45.8 26.4-26.4 45.8c-2.4 4.1-7.4 5.9-11.5 3.5s-5.9-7.4-3.5-11.5l26.4-45.8-45.8-26.4c-4.1-2.4-5.9-7.4-3.5-11.5s7.4-5.9 11.5-3.5l45.8 26.4 26.4-45.8c2.4-4.1 7.4-5.9 11.5-3.5s5.9 7.4 3.5 11.5l-26.4 45.8-45.8-26.4c-4.1-2.4-9.1-.6-11.5 3.5s-.6 9.1 3.5 11.5z"/> 
<path d="M306 363.1c-55.7 0-100.9 45.2-100.9 100.9v174.8h201.9V464c0-55.7-45.2-100.9-100.9-100.9zm-85.3 260.1v-64.6c0-6.2 5-11.2 11.2-11.2h148.1c6.2 0 11.2 5 11.2 11.2v64.6H220.7zm170.7-75.8H220.7v-83.4c0-47.1 38.2-85.3 85.3-85.3s85.3 38.2 85.3 85.3v83.4z"/>
<path d="M240.1 654.3h131.8v15.6H240.1zM240.1 680.7h131.8v15.6H240.1zM240.1 707h131.8v15.6H240.1z"/> 
<path d="M418.8 399.5c-6.2 0-11.2 5-11.2 11.2v194.2h-22.5V410.7c0-6.2-5-11.2-11.2-11.2s-11.2 5-11.2 11.2v194.2h-22.5V410.7c0-6.2-5-11.2-11.2-11.2s-11.2 5-11.2 11.2v194.2H306V410.7c0-6.2-5-11.2-11.2-11.2s-11.2 5-11.2 11.2v194.2h-22.5V410.7c0-6.2-5-11.2-11.2-11.2s-11.2 5-11.2 11.2v194.2h-22.5V410.7c0-6.2-5-11.2-11.2-11.2s-11.2 5-11.2 11.2v194.2h-22.5V410.7c0-6.2-5-11.2-11.2-11.2s-11.2 5-11.2 11.2v100.9h201.9V410.7c0-6.2-5-11.2-11.2-11.2z"/>
</svg>